
<svg xmlns="http://www.w3.org/2000/svg" viewBox="-823.5823275329656 -823.5823275329656 1647.1646550659311 1647.1646550659311" width="1647.1646550659311" height="1647.1646550659311">
  <g id="esplanade">
<path id="esplanade arch_0" d="M 241.4814565722671 64.70476127563019 A 250.0 250.0 0 0 1 -134.3574070988383 210.82714995388292" fill="none" stroke="black" />
  <path id="esplanade arch_1" d="M -210.82714995388292 134.35740709883834 A 250.0 250.0 0 0 1 -64.70476127563015 -241.4814565722671" fill="none" stroke="black" />
</g>
  <g id="a">
<path id="a arch_0" d="M 283.4992300158416 75.96338973758984 A 293.5 293.5 0 0 1 -189.95606994364252 223.7385561130803" fill="none" stroke="black" />
  <path id="a arch_1" d="M -223.73855611308028 189.95606994364258 A 293.5 293.5 0 0 1 -75.96338973758981 -283.4992300158416" fill="none" stroke="black" />
</g>
  <g id="b">
<path id="b arch_0" d="M 310.5451531519355 83.21032300046042 A 321.5 321.5 0 0 1 234.295072829402 220.15464757271246" fill="none" stroke="black" />
  <path id="b arch_1" d="M 220.15464757271246 234.29507282940193 A 321.5 321.5 0 0 1 9.998790587866685 321.34447900466563" fill="none" stroke="black" />
  <path id="b arch_2" d="M -9.998790587866646 321.34447900466563 A 321.5 321.5 0 0 1 -217.93442132718937 236.3616677906617" fill="none" stroke="black" />
  <path id="b arch_3" d="M -236.3616677906616 217.93442132718937 A 321.5 321.5 0 0 1 -321.34447900466563 9.998790587866562" fill="none" stroke="black" />
  <path id="b arch_4" d="M -321.34447900466563 -9.998790587866484 A 321.5 321.5 0 0 1 -234.2950728294019 -220.15464757271252" fill="none" stroke="black" />
  <path id="b arch_5" d="M -220.1546475727126 -234.29507282940182 A 321.5 321.5 0 0 1 -83.21032300046038 -310.5451531519355" fill="none" stroke="black" />
</g>
  <g id="c">
<path id="c arch_0" d="M 337.59107628802934 90.457256263331 A 349.5 349.5 0 1 1 -90.45725626333096 -337.59107628802934" fill="none" stroke="black" />
</g>
  <g id="d">
<path id="d arch_0" d="M 364.63699942412325 97.70418952620159 A 377.5 377.5 0 1 1 -97.70418952620153 -364.63699942412325" fill="none" stroke="black" />
</g>
  <g id="e">
<path id="e arch_0" d="M 391.6829225602172 104.95112278907216 A 405.5 405.5 0 1 1 -104.95112278907212 -391.6829225602172" fill="none" stroke="black" />
</g>
  <g id="f">
<path id="f arch_0" d="M 438.0473622220925 117.37443695399315 A 453.5 453.5 0 1 1 -117.37443695399311 -438.0473622220925" fill="none" stroke="black" />
</g>
  <g id="g">
<path id="g arch_0" d="M 465.0932853581864 124.62137021686374 A 481.5 481.5 0 0 1 347.46917420397307 333.32780108777155" fill="none" stroke="black" />
  <path id="g arch_1" d="M 333.32780108777155 347.46917420397307 A 481.5 481.5 0 0 1 9.99946082575527 481.3961578400831" fill="none" stroke="black" />
  <path id="g arch_2" d="M -9.999460825755211 481.3961578400831 A 481.5 481.5 0 0 1 -333.32780108777155 347.4691742039731" fill="none" stroke="black" />
  <path id="g arch_3" d="M -347.46917420397307 333.3278010877716 A 481.5 481.5 0 0 1 -481.3961578400831 9.9994608257553" fill="none" stroke="black" />
  <path id="g arch_4" d="M -481.3961578400831 -9.99946082575518 A 481.5 481.5 0 0 1 -347.4691742039731 -333.3278010877715" fill="none" stroke="black" />
  <path id="g arch_5" d="M -333.3278010877716 -347.469174203973 A 481.5 481.5 0 0 1 -124.6213702168637 -465.0932853581864" fill="none" stroke="black" />
</g>
  <g id="h">
<path id="h arch_0" d="M 492.1392084942803 131.86830347973432 A 509.5 509.5 0 1 1 -131.86830347973427 -492.1392084942803" fill="none" stroke="black" />
</g>
  <g id="i">
<path id="i arch_0" d="M 519.1851316303743 139.1152367426049 A 537.5 537.5 0 1 1 -139.11523674260485 -519.1851316303743" fill="none" stroke="black" />
</g>
  <g id="j">
<path id="j arch_0" d="M 536.5717965035775 143.77397955445025 A 555.5 555.5 0 1 1 -143.77397955445022 -536.5717965035775" fill="none" stroke="black" />
</g>
  <g id="k">
<path id="k arch_0" d="M 554.9243872030697 148.69154141139816 A 574.5 574.5 0 1 1 -148.6915414113981 -554.9243872030697" fill="none" stroke="black" />
</g>
  <g id="02:00">
<line id="02:00 line_0" x1="241.41885055961825" y1="64.93795958026696" x2="554.7804813957827" y2="149.22756937749529" stroke="black" />
</g>
  <g id="02:15">
<line id="02:15 line_0" x1="418.74199509420157" y1="174.11890059511165" x2="530.4680645940755" y2="220.57625086451486" stroke="black" />
</g>
  <g id="02:30">
<line id="02:30 line_0" x1="216.29710949848658" y1="125.36171833000897" x2="497.05069330485674" y2="288.081339702523" stroke="black" />
</g>
  <g id="02:45">
<line id="02:45 line_0" x1="359.2706372103749" y1="276.7433092926487" x2="455.1289282415469" y2="350.58224238783407" stroke="black" />
</g>
  <g id="03:00">
<line id="03:00 line_0" x1="176.4355100852372" y1="177.1172232755861" x2="219.83863794869276" y2="220.688067789326" stroke="black" />
  <line id="03:00 line_1" x1="233.95347563013115" y1="234.8574487650407" x2="332.7573304937186" y2="334.04312446542633" stroke="black" />
  <line id="03:00 line_2" x1="346.8721656303997" y1="348.21250797541063" x2="405.4487280489055" y2="407.01545292907025" stroke="black" />
</g>
  <g id="03:15">
<line id="03:15 line_0" x1="275.40304176702574" y1="360.299062703446" x2="348.8843117967601" y2="456.431798828229" stroke="black" />
</g>
  <g id="03:30">
<line id="03:30 line_0" x1="124.638645894504" y1="216.71457715083798" x2="286.41954419395347" y2="498.01013514139623" stroke="black" />
</g>
  <g id="03:45">
<line id="03:45 line_0" x1="172.9762892634849" y1="419.2152828233514" x2="219.1287085839802" y2="531.0676596004457" stroke="black" />
</g>
  <g id="04:00">
<line id="04:00 line_0" x1="64.47231421153852" y1="241.54362069850967" x2="148.15734111893758" y2="555.0672502250962" stroke="black" />
</g>
  <g id="04:15">
<line id="04:15 line_0" x1="58.969650357881804" y1="449.64967512076163" x2="74.70355214665315" y2="569.6223567388267" stroke="black" />
</g>
  <g id="04:30">
<line id="04:30 line_0" x1="1.5308084989346548e-14" y1="250.00000000007566" x2="1.9073873896718172e-14" y2="311.4999999999697" stroke="black" />
  <line id="04:30 line_1" x1="2.029852069586047e-14" y1="331.4999999998871" x2="2.8871048289896445e-14" y2="471.4999999999607" stroke="black" />
  <line id="04:30 line_2" x1="3.009569508903306e-14" y1="491.49999999978536" x2="3.5177979305513496e-14" y2="574.5000000000944" stroke="black" />
</g>
  <g id="04:45">
<line id="04:45 line_0" x1="-58.96965035788175" y1="449.64967512076163" x2="-74.70355214665284" y2="569.6223567388267" stroke="black" />
</g>
  <g id="05:00">
<line id="05:00 line_0" x1="-64.47231421153822" y1="241.54362069850973" x2="-148.157341118937" y2="555.0672502250964" stroke="black" />
</g>
  <g id="05:15">
<line id="05:15 line_0" x1="-172.9762892634852" y1="419.2152828233513" x2="-219.12870858397986" y2="531.0676596004458" stroke="black" />
</g>
  <g id="05:30">
<line id="05:30 line_0" x1="-124.63864589450381" y1="216.71457715083807" x2="-286.41954419395375" y2="498.01013514139606" stroke="black" />
</g>
  <g id="05:45">
<line id="05:45 line_0" x1="-275.4030417670258" y1="360.2990627034459" x2="-348.8843117967601" y2="456.431798828229" stroke="black" />
</g>
  <g id="06:00">
<line id="06:00 line_0" x1="-229.29557923086173" y1="230.18155300894153" x2="-332.7573304937184" y2="334.04312446542656" stroke="black" />
  <line id="06:00 line_1" x1="-346.87216563039976" y1="348.21250797541063" x2="-405.4487280489055" y2="407.01545292907025" stroke="black" />
</g>
  <g id="06:15">
<line id="06:15 line_0" x1="-359.2706372103749" y1="276.74330929264863" x2="-455.1289282415469" y2="350.582242387834" stroke="black" />
</g>
  <g id="06:30">
<line id="06:30 line_0" x1="-216.29710949848655" y1="125.36171833000898" x2="-497.05069330485674" y2="288.081339702523" stroke="black" />
</g>
  <g id="06:45">
<line id="06:45 line_0" x1="-418.74199509420157" y1="174.11890059511157" x2="-530.4680645940754" y2="220.57625086451498" stroke="black" />
</g>
  <g id="07:00">
<line id="07:00 line_0" x1="-241.41885055961825" y1="64.93795958026695" x2="-554.7804813957827" y2="149.22756937749526" stroke="black" />
</g>
  <g id="07:15">
<line id="07:15 line_0" x1="-449.5905736792776" y1="59.41856661765337" x2="-569.5474781079604" y2="75.27230686641226" stroke="black" />
</g>
  <g id="07:30">
<line id="07:30 line_0" x1="-249.99999999996467" y1="4.9708831304030434e-05" x2="-311.5000000001408" y2="7.717362360026102e-05" stroke="black" />
  <line id="07:30 line_1" x1="-331.4999999999599" y1="8.74017868405895e-05" x2="-471.5000000000711" y2="0.00017681440211130375" stroke="black" />
  <line id="07:30 line_2" x1="-491.49999999982947" y1="0.00019213221831378342" x2="-574.4999999997541" y2="0.0002625029268378112" stroke="black" />
</g>
  <g id="07:45">
<line id="07:45 line_0" x1="-449.59061617235363" y1="-59.41824509010414" x2="-569.5475463018984" y2="-75.27179087327963" stroke="black" />
</g>
  <g id="08:00">
<line id="08:00 line_0" x1="-241.41887549762941" y1="-64.9378668705384" x2="-554.7806130858461" y2="-149.22707979474384" stroke="black" />
</g>
  <g id="08:15">
<line id="08:15 line_0" x1="-418.7421110722713" y1="-174.11862167679755" x2="-530.4682507180759" y2="-220.57580325251305" stroke="black" />
</g>
  <g id="08:30">
<line id="08:30 line_0" x1="-216.2971526308269" y1="-125.3616439112888" x2="-497.0509210767129" y2="-288.08094670981984" stroke="black" />
</g>
  <g id="08:45">
<line id="08:45 line_0" x1="-359.2707953652602" y1="-276.74310397458345" x2="-455.129182051372" y2="-350.58191289048193" stroke="black" />
</g>
  <g id="09:00">
<line id="09:00 line_0" x1="-176.4355597942898" y1="-177.1171737588963" x2="-219.83871512224465" y2="-220.68799091368464" stroke="black" />
  <line id="09:00 line_1" x1="-233.9535630314495" y1="-234.85736170078152" x2="-332.7575073067378" y2="-334.04294833350775" stroke="black" />
  <line id="09:00 line_2" x1="-346.8723577613665" y1="-348.21231658457447" x2="-405.44899054990896" y2="-407.01519143931256" stroke="black" />
</g>
  <g id="09:15">
<line id="09:15 line_0" x1="-275.4031996068737" y1="-360.29894205609986" x2="-348.8845651004309" y2="-456.4316052103542" stroke="black" />
</g>
  <g id="09:30">
<line id="09:30 line_0" x1="-124.6386888604449" y1="-216.71455244027112" x2="-286.4197710887271" y2="-498.01000464791997" stroke="black" />
</g>
  <g id="09:45">
<line id="09:45 line_0" x1="-172.97640461093664" y1="-419.21523522922325" x2="-219.12889369592463" y2="-531.067583221047" stroke="black" />
</g>
  <g id="10:00">
<line id="10:00 line_0" x1="-64.47233898309858" y1="-241.54361408688274" x2="-148.15747193280106" y2="-555.0672153085699" stroke="black" />
</g>
  <g id="3:00 &amp; B Plaza">
<circle id="3:00 &amp; B Plaza circle_0" cx="226.8960568290097" cy="227.77275823738282" r="10.0" fill="none" stroke="black" />
</g>
  <g id="4:30 &amp; B Plaza">
<circle id="4:30 &amp; B Plaza circle_0" cx="1.9686197296304896e-14" cy="321.50000000018275" r="10.0" fill="none" stroke="black" />
</g>
  <g id="7:30 &amp; B Plaza">
<circle id="7:30 &amp; B Plaza circle_0" cx="-321.49999999991326" cy="8.220871931268763e-05" r="10.0" fill="none" stroke="black" />
</g>
  <g id="9:00 &amp; B Plaza">
<circle id="9:00 &amp; B Plaza circle_0" cx="-226.89613903703412" cy="-227.77267634708215" r="10.0" fill="none" stroke="black" />
</g>
  <g id="3:00 &amp; G Plaza">
<circle id="3:00 &amp; G Plaza circle_0" cx="339.8147481017474" cy="341.127816181296" r="10.0" fill="none" stroke="black" />
</g>
  <g id="4:30 &amp; G Plaza">
<circle id="4:30 &amp; G Plaza circle_0" cx="2.9483371689463765e-14" cy="481.4999999998569" r="10.0" fill="none" stroke="black" />
</g>
  <g id="6:00 &amp; G Plaza">
<circle id="6:00 &amp; G Plaza circle_0" cx="-339.81474810174734" cy="341.127816181296" r="10.0" fill="none" stroke="black" />
  <circle id="6:00 &amp; G Plaza circle_1" cx="-339.81474810174734" cy="341.127816181296" r="28.0" fill="none" stroke="black" />
</g>
  <g id="7:30 &amp; G Plaza">
<circle id="7:30 &amp; G Plaza circle_0" cx="-481.5000000000526" cy="0.00018439391696049997" r="10.0" fill="none" stroke="black" />
</g>
  <g id="9:00 &amp; G Plaza">
<circle id="9:00 &amp; G Plaza circle_0" cx="-339.81493249434476" cy="-341.12763249849064" r="10.0" fill="none" stroke="black" />
</g>
  <g id="Center Camp">
<circle id="Center Camp circle_0" cx="-211.65203194753957" cy="212.4698269685038" r="25.0" fill="none" stroke="black" />
  <path id="Center Camp arch_0" d="M -253.76916428042665 147.15850329065827 A 77.7137171707687 77.7137171707687 0 0 1 -146.34070826969403 254.5869593013909" fill="none" stroke="black" />
  <line id="Center Camp line_0" x1="-194.00848416810538" y1="194.75810142517003" x2="-156.80620303714895" y2="157.41206741066267" stroke="black" />
</g>
  <g id="6:00 Promenade">
<line id="6:00 Promenade line_0" x1="-156.80620303714895" y1="157.41206741066267" x2="-28.229684953952123" y2="28.338752396645777" stroke="black" />
</g>
  <g id="3:00 Promenade">
<line id="3:00 Promenade line_0" x1="176.4355100852372" y1="177.1172232755861" x2="28.229684953952113" y2="28.33875239664578" stroke="black" />
</g>
  <g id="9:00 Promenade">
<line id="9:00 Promenade line_0" x1="-176.4355597942898" y1="-177.1171737588963" x2="-28.229686226424395" y2="-28.33875112885803" stroke="black" />
</g>
  <g id="12:00 Promenade">
<line id="12:00 Promenade line_0" x1="162.3207131812368" y1="-162.94780167994787" x2="28.2296862264244" y2="-28.338751128858025" stroke="black" />
</g>
  <g id="Man">
<circle id="Man circle_0" cx="0.0" cy="-0.0" r="40.0" fill="none" stroke="black" />
</g>
  <g id="Temple">
<g xmlns:ns0="http://www.w3.org/2000/svg" xmlns:ns1="http://sodipodi.sourceforge.net/DTD/sodipodi-0.dtd" xmlns:ns2="http://www.inkscape.org/namespaces/inkscape" id="Temple_icon_0" transform="translate(176.43555979428976, -177.11717375889637) scale(1.25) rotate(0) translate(-16.0, -14.8)"><ns0:defs id="defs3957" />
  <ns1:namedview id="namedview3955" pagecolor="#ffffff" bordercolor="#000000" borderopacity="0.25" ns2:showpageshadow="2" ns2:pageopacity="0.0" ns2:pagecheckerboard="0" ns2:deskcolor="#d1d1d1" showgrid="false" showguides="false" ns2:zoom="5.9272367" ns2:cx="9.9540482" ns2:cy="52.132218" ns2:window-width="1920" ns2:window-height="1080" ns2:window-x="0" ns2:window-y="0" ns2:window-maximized="0" ns2:current-layer="svg3953" />
  <ns0:path d="M 24.487843,-1.1330419 C 21.617318,-1.392055 18.854102,0.53220248 17.15088,3.1688395 15.447656,0.53220248 12.696294,-1.1330419 9.8139164,-1.1330419 c -5.3717049,0 -9.69527233,4.7181924 -9.69527233,10.6853184 0,8.7425325 15.84466593,21.1752905 15.84466593,21.1752905 0,0 15.977471,-12.094707 16.003308,-20.8384266 0.01329,-4.4980728 -1.266145,-10.46160451 -7.478775,-11.0221823 z" id="path3951" style="stroke-width:1.34839;fill:#ff0000;fill-opacity:1;stroke:#000000;stroke-opacity:1" ns1:nodetypes="scsscss" />
</g>
</g>
  <g id="Trash Fence">
<line id="Trash Fence line_0" x1="-129.95635328718336" y1="823.5823275329656" x2="-823.418168278697" y2="130.93068947972682" stroke="black" />
  <line id="Trash Fence line_1" x1="-823.418168278697" y1="130.93068947972682" x2="-377.3604267533763" y2="-743.5018512631162" stroke="black" />
  <line id="Trash Fence line_2" x1="-377.3604267533763" y1="-743.5018512631162" x2="588.4223969280772" y2="-590.704329928333" stroke="black" />
  <line id="Trash Fence line_3" x1="588.4223969280772" y1="-590.704329928333" x2="742.3084632157027" y2="379.7011913862168" stroke="black" />
  <line id="Trash Fence line_4" x1="742.3084632157027" y1="379.7011913862168" x2="-129.95635328718336" y2="823.5823275329656" stroke="black" />
</g>
  <g id="hour_labels">

    <text x="590.9933019736347" y="158.96828936017533" transform="rotate(285.0, 590.9933019736347, 158.96828936017533)" text-anchor="middle" fill="black" font-size="24px" font-family="Reef">
        II
    </text>
    
  
    <text x="431.91404059833576" y="433.5830503311524" transform="rotate(315.0, 431.91404059833576, 433.5830503311524)" text-anchor="middle" fill="black" font-size="24px" font-family="Reef">
        III
    </text>
    
  
    <text x="157.82818129227434" y="591.2987951868762" transform="rotate(345.0, 157.82818129227434, 591.2987951868762)" text-anchor="middle" fill="black" font-size="24px" font-family="Reef">
        IV
    </text>
    
  
    <text x="-157.82818129227425" y="591.2987951868762" transform="rotate(375.0, -157.82818129227425, 591.2987951868762)" text-anchor="middle" fill="black" font-size="24px" font-family="Reef">
        V
    </text>
    
  
    <text x="-431.91404059833576" y="433.5830503311524" transform="rotate(405.0, -431.91404059833576, 433.5830503311524)" text-anchor="middle" fill="black" font-size="24px" font-family="Reef">
        VI
    </text>
    
  
    <text x="-590.9933019736347" y="158.9682893601753" transform="rotate(435.0, -590.9933019736347, 158.9682893601753)" text-anchor="middle" fill="black" font-size="24px" font-family="Reef">
        VII
    </text>
    
  
    <text x="-590.9934514165393" y="-158.96773377707405" transform="rotate(285.0, -590.9934514165393, -158.96773377707405)" text-anchor="middle" fill="black" font-size="24px" font-family="Reef">
        VIII
    </text>
    
  
    <text x="-431.9143384862443" y="-433.5827535892703" transform="rotate(315.0, -431.9143384862443, -433.5827535892703)" text-anchor="middle" fill="black" font-size="24px" font-family="Reef">
        IX
    </text>
    
  
    <text x="-157.8283297408898" y="-591.2987555637367" transform="rotate(345.0, -157.8283297408898, -591.2987555637367)" text-anchor="middle" fill="black" font-size="24px" font-family="Reef">
        X
    </text>
    
  
    <text x="431.9143384862444" y="-433.5827535892702" transform="rotate(45.0, 431.9143384862444, -433.5827535892702)" text-anchor="middle" fill="black" font-size="24px" font-family="Reef">
        XII
    </text>
    
</g>
</svg>
