
<svg xmlns="http://www.w3.org/2000/svg" viewBox="-1000.5001827844383 -1000.5001827844383 2001.0003655688765 2001.0003655688765" width="2001.0003655688765" height="2001.0003655688765">
  <g id="esplanade">
<path id="esplanade arch_0" d="M 241.4814565722671 64.70476127563019 A 250.0 250.0 0 0 1 -134.3574070988383 210.82714995388292" fill="none" stroke="black" />
  <path id="esplanade arch_1" d="M -210.82714995388292 134.35740709883834 A 250.0 250.0 0 0 1 -64.70476127563015 -241.4814565722671" fill="none" stroke="black" />
</g>
  <g id="a">
<path id="a arch_0" d="M 283.4992300158416 75.96338973758984 A 293.5 293.5 0 0 1 -189.17516170027505 224.39921612090092" fill="none" stroke="black" />
  <path id="a arch_1" d="M -224.39921612090083 189.17516170027508 A 293.5 293.5 0 0 1 -75.96338973758981 -283.4992300158416" fill="none" stroke="black" />
</g>
  <g id="b">
<path id="b arch_0" d="M 310.5451531519355 83.21032300046042 A 321.5 321.5 0 0 1 234.295072829402 220.15464757271246" fill="none" stroke="black" />
  <path id="b arch_1" d="M 220.15464757271246 234.29507282940193 A 321.5 321.5 0 0 1 9.998790587866685 321.34447900466563" fill="none" stroke="black" />
  <path id="b arch_2" d="M -9.998790587866646 321.34447900466563 A 321.5 321.5 0 0 1 -216.4954047006407 237.68043618166348" fill="none" stroke="black" />
  <path id="b arch_3" d="M -237.68043618166342 216.49540470064076 A 321.5 321.5 0 0 1 -321.34447900466563 9.998790587866562" fill="none" stroke="black" />
  <path id="b arch_4" d="M -321.34447900466563 -9.998790587866484 A 321.5 321.5 0 0 1 -234.2950728294019 -220.15464757271252" fill="none" stroke="black" />
  <path id="b arch_5" d="M -220.1546475727126 -234.29507282940182 A 321.5 321.5 0 0 1 -83.21032300046038 -310.5451531519355" fill="none" stroke="black" />
</g>
  <g id="c">
<path id="c arch_0" d="M 337.59107628802934 90.457256263331 A 349.5 349.5 0 1 1 -90.45725626333096 -337.59107628802934" fill="none" stroke="black" />
</g>
  <g id="d">
<path id="d arch_0" d="M 364.63699942412325 97.70418952620159 A 377.5 377.5 0 1 1 -97.70418952620153 -364.63699942412325" fill="none" stroke="black" />
</g>
  <g id="e">
<path id="e arch_0" d="M 391.6829225602172 104.95112278907216 A 405.5 405.5 0 1 1 -104.95112278907212 -391.6829225602172" fill="none" stroke="black" />
</g>
  <g id="f">
<path id="f arch_0" d="M 438.0473622220925 117.37443695399315 A 453.5 453.5 0 1 1 -117.37443695399311 -438.0473622220925" fill="none" stroke="black" />
</g>
  <g id="g">
<path id="g arch_0" d="M 465.0932853581864 124.62137021686374 A 481.5 481.5 0 0 1 347.46917420397307 333.32780108777155" fill="none" stroke="black" />
  <path id="g arch_1" d="M 333.32780108777155 347.46917420397307 A 481.5 481.5 0 0 1 9.99946082575527 481.3961578400831" fill="none" stroke="black" />
  <path id="g arch_2" d="M -9.999460825755211 481.3961578400831 A 481.5 481.5 0 0 1 -333.32780108777155 347.4691742039731" fill="none" stroke="black" />
  <path id="g arch_3" d="M -347.46917420397307 333.3278010877716 A 481.5 481.5 0 0 1 -481.3961578400831 9.9994608257553" fill="none" stroke="black" />
  <path id="g arch_4" d="M -481.3961578400831 -9.99946082575518 A 481.5 481.5 0 0 1 -347.4691742039731 -333.3278010877715" fill="none" stroke="black" />
  <path id="g arch_5" d="M -333.3278010877716 -347.469174203973 A 481.5 481.5 0 0 1 -124.6213702168637 -465.0932853581864" fill="none" stroke="black" />
</g>
  <g id="h">
<path id="h arch_0" d="M 492.1392084942803 131.86830347973432 A 509.5 509.5 0 1 1 -131.86830347973427 -492.1392084942803" fill="none" stroke="black" />
</g>
  <g id="i">
<path id="i arch_0" d="M 519.1851316303743 139.1152367426049 A 537.5 537.5 0 1 1 -139.11523674260485 -519.1851316303743" fill="none" stroke="black" />
</g>
  <g id="j">
<path id="j arch_0" d="M 536.5717965035775 143.77397955445025 A 555.5 555.5 0 1 1 -143.77397955445022 -536.5717965035775" fill="none" stroke="black" />
</g>
  <g id="k">
<path id="k arch_0" d="M 554.9243872030697 148.69154141139816 A 574.5 574.5 0 1 1 -148.6915414113981 -554.9243872030697" fill="none" stroke="black" />
</g>
  <g id="02:00">
<line id="02:00 line_0" x1="241.41884137297524" y1="64.93799373335005" x2="554.7804602854275" y2="149.22764785858394" stroke="black" />
</g>
  <g id="02:15">
<line id="02:15 line_0" x1="418.74196028060686" y1="174.11898431959338" x2="530.468020491801" y2="220.5763569271599" stroke="black" />
</g>
  <g id="02:30">
<line id="02:30 line_0" x1="216.2970788238917" y1="125.36177125514193" x2="497.0506228162997" y2="288.0814613232816" stroke="black" />
</g>
  <g id="02:45">
<line id="02:45 line_0" x1="359.2705617538514" y1="276.7434072514942" x2="455.12883265296784" y2="350.5823664820116" stroke="black" />
</g>
  <g id="03:00">
<line id="03:00 line_0" x1="176.43546013818636" y1="177.1172730305187" x2="219.83857571474567" y2="220.6881297837143" stroke="black" />
  <line id="03:00 line_1" x1="233.95340940080695" y1="234.85751473998266" x2="332.75723629464875" y2="334.04321830219754" stroke="black" />
  <line id="03:00 line_2" x1="346.87206743601206" y1="348.21260579231" x2="405.4486132722289" y2="407.01556726390197" stroke="black" />
</g>
  <g id="03:15">
<line id="03:15 line_0" x1="275.4029437235012" y1="360.29913764562224" x2="348.88418759446097" y2="456.43189376524776" stroke="black" />
</g>
  <g id="03:30">
<line id="03:30 line_0" x1="124.63859307034909" y1="216.71460753142273" x2="286.4194228056076" y2="498.0102049546501" stroke="black" />
</g>
  <g id="03:45">
<line id="03:45 line_0" x1="172.9762058981691" y1="419.21531722107346" x2="219.1286029761035" y2="531.0677031769063" stroke="black" />
</g>
  <g id="04:00">
<line id="04:00 line_0" x1="64.47228026698915" y1="241.5436297593439" x2="148.15726311548485" y2="555.0672710452922" stroke="black" />
</g>
  <g id="04:15">
<line id="04:15 line_0" x1="58.969617661170595" y1="449.6496794091634" x2="74.70351072627363" y2="569.6223621703296" stroke="black" />
</g>
  <g id="04:30">
<line id="04:30 line_0" x1="1.530808498934613e-14" y1="250.00000000006884" x2="1.9073873896730794e-14" y2="311.5000000001759" stroke="black" />
  <line id="04:30 line_1" x1="2.0298520695852097e-14" y1="331.49999999975046" x2="2.8871048289903147e-14" y2="471.50000000007014" stroke="black" />
  <line id="04:30 line_2" x1="3.0095695089054884e-14" y1="491.50000000014177" x2="3.517797930550155e-14" y2="574.4999999998993" stroke="black" />
</g>
  <g id="04:45">
<line id="04:45 line_0" x1="-58.96961766117064" y1="449.6496794091634" x2="-74.70351072627355" y2="569.6223621703296" stroke="black" />
</g>
  <g id="05:00">
<line id="05:00 line_0" x1="-64.472280266989" y1="241.54362975934396" x2="-148.15726311548454" y2="555.0672710452922" stroke="black" />
</g>
  <g id="05:15">
<line id="05:15 line_0" x1="-172.9762058981693" y1="419.21531722107346" x2="-219.12860297610322" y2="531.0677031769064" stroke="black" />
</g>
  <g id="05:30">
<line id="05:30 line_0" x1="-124.63859307034906" y1="216.71460753142273" x2="-286.4194228056077" y2="498.0102049546501" stroke="black" />
</g>
  <g id="05:45">
<line id="05:45 line_0" x1="-275.40294372350127" y1="360.29913764562224" x2="-348.8841875944606" y2="456.43189376524805" stroke="black" />
</g>
  <g id="06:00">
<line id="06:00 line_0" x1="-230.0012560006538" y1="230.8900869198561" x2="-332.7572362946486" y2="334.04321830219766" stroke="black" />
  <line id="06:00 line_1" x1="-346.8720674360119" y1="348.2126057923102" x2="-405.4486132722289" y2="407.01556726390197" stroke="black" />
</g>
  <g id="06:15">
<line id="06:15 line_0" x1="-359.27056175385144" y1="276.74340725149415" x2="-455.12883265296784" y2="350.5823664820116" stroke="black" />
</g>
  <g id="06:30">
<line id="06:30 line_0" x1="-216.2970788238918" y1="125.36177125514185" x2="-497.0506228162999" y2="288.08146132328136" stroke="black" />
</g>
  <g id="06:45">
<line id="06:45 line_0" x1="-418.74196028060686" y1="174.11898431959338" x2="-530.468020491801" y2="220.5763569271599" stroke="black" />
</g>
  <g id="07:00">
<line id="07:00 line_0" x1="-241.41884137297524" y1="64.93799373335011" x2="-554.7804602854275" y2="149.22764785858408" stroke="black" />
</g>
  <g id="07:15">
<line id="07:15 line_0" x1="-449.59056932667136" y1="59.41859955096042" x2="-569.5474725943698" y2="75.27234858524928" stroke="black" />
</g>
  <g id="07:30">
<line id="07:30 line_0" x1="-250.00000000017968" y1="4.970753756118258e-05" x2="-311.5000000000654" y2="7.717208975519137e-05" stroke="black" />
  <line id="07:30 line_1" x1="-331.5000000000216" y1="8.739955210820661e-05" x2="-471.50000000011124" y2="0.00017680981546581095" stroke="black" />
  <line id="07:30 line_2" x1="-491.49999999982555" y1="0.00019212762744409746" x2="-574.4999999999866" y2="0.0002624966876520828" stroke="black" />
</g>
  <g id="07:45">
<line id="07:45 line_0" x1="-449.5906118188116" y1="-59.418278031499504" x2="-569.5475407866458" y2="-75.2718326053836" stroke="black" />
</g>
  <g id="08:00">
<line id="08:00 line_0" x1="-241.41886630995245" y1="-64.9379010264183" x2="-554.7805919725929" y2="-149.22715828829106" stroke="black" />
</g>
  <g id="08:15">
<line id="08:15 line_0" x1="-418.74207625552907" y1="-174.11870540852993" x2="-530.4682066112372" y2="-220.57590932619206" stroke="black" />
</g>
  <g id="08:30">
<line id="08:30 line_0" x1="-216.29712195430562" y1="-125.36169683804094" x2="-497.0508505818807" y2="-288.0810683398424" stroke="black" />
</g>
  <g id="08:45">
<line id="08:45 line_0" x1="-359.27071990466027" y1="-276.7432019384039" x2="-455.1290864558964" y2="-350.58203699306773" stroke="black" />
</g>
  <g id="09:00">
<line id="09:00 line_0" x1="-176.43550984563643" y1="-177.11722351497485" x2="-219.83865288617935" y2="-220.68805291003486" stroke="black" />
  <line id="09:00 line_1" x1="-233.95349679961924" y1="-234.85742767741152" x2="-332.75741310299617" y2="-334.0430421742002" stroke="black" />
  <line id="09:00 line_2" x1="-346.8722595618873" y1="-348.2124144062152" x2="-405.4488757666805" y2="-407.0153057808498" stroke="black" />
</g>
  <g id="09:15">
<line id="09:15 line_0" x1="-275.4031015595797" y1="-360.2990170009198" x2="-348.8844408917463" y2="-456.4317001523018" stroke="black" />
</g>
  <g id="09:30">
<line id="09:30 line_0" x1="-124.6386360351084" y1="-216.71458282151139" x2="-286.41964969511133" y2="-498.01007446541325" stroke="black" />
</g>
  <g id="09:45">
<line id="09:45 line_0" x1="-172.9763212425574" y1="-419.2152696282154" x2="-219.12878808285305" y2="-531.0676267983192" stroke="black" />
</g>
  <g id="10:00">
<line id="10:00 line_0" x1="-64.47230503809513" y1="-241.54362314731634" x2="-148.1573939261694" y2="-555.0672361306366" stroke="black" />
</g>
  <g id="3:00 &amp; B Plaza">
<circle id="3:00 &amp; B Plaza circle_0" cx="226.8959925977219" cy="227.77282222251725" r="10.0" fill="none" stroke="black" />
</g>
  <g id="4:30 &amp; B Plaza">
<circle id="4:30 &amp; B Plaza circle_0" cx="1.9686197296296263e-14" cy="321.5000000000418" r="10.0" fill="none" stroke="black" />
</g>
  <g id="7:30 &amp; B Plaza">
<circle id="7:30 &amp; B Plaza circle_0" cx="-321.50000000010544" cy="8.220636952703742e-05" r="10.0" fill="none" stroke="black" />
</g>
  <g id="9:00 &amp; B Plaza">
<circle id="9:00 &amp; B Plaza circle_0" cx="-226.89607480361164" cy="-227.77274033362374" r="10.0" fill="none" stroke="black" />
</g>
  <g id="3:00 &amp; G Plaza">
<circle id="3:00 &amp; G Plaza circle_0" cx="339.8146519051069" cy="341.1279120077955" r="10.0" fill="none" stroke="black" />
</g>
  <g id="4:30 &amp; G Plaza">
<circle id="4:30 &amp; G Plaza circle_0" cx="2.948337168948146e-14" cy="481.50000000014586" r="10.0" fill="none" stroke="black" />
</g>
  <g id="6:00 &amp; G Plaza">
<circle id="6:00 &amp; G Plaza circle_0" cx="-339.81465190510704" cy="341.12791200779543" r="10.0" fill="none" stroke="black" />
  <circle id="6:00 &amp; G Plaza circle_1" cx="-339.81465190510704" cy="341.12791200779543" r="28.0" fill="none" stroke="black" />
</g>
  <g id="7:30 &amp; G Plaza">
<circle id="7:30 &amp; G Plaza circle_0" cx="-481.49999999987733" cy="0.0001843895608369709" r="10.0" fill="none" stroke="black" />
</g>
  <g id="9:00 &amp; G Plaza">
<circle id="9:00 &amp; G Plaza circle_0" cx="-339.81483629258935" cy="-341.12772832980284" r="10.0" fill="none" stroke="black" />
</g>
  <g id="Center Camp">
<circle id="Center Camp circle_0" cx="-211.65197203154497" cy="212.469886654854" r="26.0" fill="none" stroke="black" />
  <path id="Center Camp arch_0" d="M -253.76910436443205 147.15856297700847 A 77.7137171707687 77.7137171707687 0 0 1 -146.34064835369944 254.5870189877411" fill="none" stroke="black" />
  <line id="Center Camp line_0" x1="-193.3026875245103" y1="194.04968692445186" x2="-156.8061586465897" y2="157.4121116297897" stroke="black" />
</g>
  <g id="6:00 Promenade">
<line id="6:00 Promenade line_0" x1="-156.8061586465897" y1="157.4121116297897" x2="-28.22967696207482" y2="28.338760357260025" stroke="black" />
</g>
  <g id="3:00 Promenade">
<line id="3:00 Promenade line_0" x1="176.43546013818636" y1="177.1172730305187" x2="28.229676962074812" y2="28.338760357260036" stroke="black" />
</g>
  <g id="9:00 Promenade">
<line id="9:00 Promenade line_0" x1="-176.43550984563643" y1="-177.11722351497485" x2="-28.22967823483354" y2="-28.338759089779792" stroke="black" />
</g>
  <g id="12:00 Promenade">
<line id="12:00 Promenade line_0" x1="162.3206672288283" y1="-162.94784745635096" x2="28.22967823483354" y2="-28.338759089779778" stroke="black" />
</g>
  <g id="Man">
<circle id="Man circle_0" cx="0.0" cy="-0.0" r="40.0" fill="none" stroke="black" />
</g>
  <g id="Temple">
<g xmlns:ns0="http://www.w3.org/2000/svg" xmlns:ns1="http://sodipodi.sourceforge.net/DTD/sodipodi-0.dtd" xmlns:ns2="http://www.inkscape.org/namespaces/inkscape" id="Temple_icon_0" transform="translate(176.4355098456364, -177.11722351497485) scale(1.25) rotate(0) translate(-16.0, -14.8)"><ns0:defs id="defs3957" />
  <ns1:namedview id="namedview3955" pagecolor="#ffffff" bordercolor="#000000" borderopacity="0.25" ns2:showpageshadow="2" ns2:pageopacity="0.0" ns2:pagecheckerboard="0" ns2:deskcolor="#d1d1d1" showgrid="false" showguides="false" ns2:zoom="5.9272367" ns2:cx="9.9540482" ns2:cy="52.132218" ns2:window-width="1920" ns2:window-height="1080" ns2:window-x="0" ns2:window-y="0" ns2:window-maximized="0" ns2:current-layer="svg3953" />
  <ns0:path d="M 24.487843,-1.1330419 C 21.617318,-1.392055 18.854102,0.53220248 17.15088,3.1688395 15.447656,0.53220248 12.696294,-1.1330419 9.8139164,-1.1330419 c -5.3717049,0 -9.69527233,4.7181924 -9.69527233,10.6853184 0,8.7425325 15.84466593,21.1752905 15.84466593,21.1752905 0,0 15.977471,-12.094707 16.003308,-20.8384266 0.01329,-4.4980728 -1.266145,-10.46160451 -7.478775,-11.0221823 z" id="path3951" style="stroke-width:1.34839;fill:#ff0000;fill-opacity:1;stroke:#000000;stroke-opacity:1" ns1:nodetypes="scsscss" />
</g>
</g>
  <g id="airport">
<g xmlns:ns0="http://sodipodi.sourceforge.net/DTD/sodipodi-0.dtd" xmlns:ns1="http://www.inkscape.org/namespaces/inkscape" xmlns:ns2="http://www.w3.org/2000/svg" id="airport_icon_0" transform="translate(-313.33284931607017, 548.2057968528434) scale(0.2) rotate(0) translate(0.0, 0.0)"><ns0:namedview id="namedview687" pagecolor="#ffffff" bordercolor="#000000" borderopacity="0.25" ns1:showpageshadow="2" ns1:pageopacity="0.0" ns1:pagecheckerboard="0" ns1:deskcolor="#d1d1d1" ns1:document-units="px" showgrid="false" ns1:zoom="0.79293125" ns1:cx="-102.15261" ns1:cy="372.0373" ns1:window-width="1920" ns1:window-height="1080" ns1:window-x="0" ns1:window-y="0" ns1:window-maximized="0" ns1:current-layer="svg8061" /><ns2:defs id="defs8058" /><ns2:g id="layer1" transform="matrix(0.82437684,0,0,0.82437684,-109.90819,-112.90717)"><ns2:path style="fill:#000000;stroke-width:0.264583" d="m 80.474027,257.39902 c -4.295899,-3.91086 -18.327369,-14.5921 -19.168995,-14.5921 -0.415457,0 -4.692586,-3.04362 -8.937072,-6.35964 -5.542301,-4.32996 -9.554119,-7.83222 -11.566008,-10.09698 -4.575966,-5.15111 -11.879757,-14.60548 -13.041005,-16.88088 -1.36901,-2.68251 -8.414418,-12.12772 -13.162256,-17.64559 -1.418828,-1.64894 -2.579687,-3.21984 -2.579687,-3.49089 0,-3.91627 10.434804,-16.43435 13.69932,-16.43435 1.028332,0 7.108721,4.58357 17.256928,13.00879 13.19594,10.95549 19.082996,15.41246 19.599256,14.8382 0.09792,-0.10892 9.438332,-12.40194 20.756482,-27.31783 11.318147,-14.91588 21.50936,-28.33098 22.64714,-29.81133 l 2.0687,-2.69154 L 72.203809,89.858916 36.360791,39.79296 38.786414,35.135881 c 5.99595,-11.51192 9.876319,-16.605031 14.188593,-18.622987 2.345587,-1.097632 4.709617,-1.141739 6.452425,-0.120386 3.557016,2.084551 13.061648,10.32664 46.121778,39.995221 26.82359,24.071839 31.68841,28.150234 36.53509,30.629036 3.70034,1.892514 9.88088,4.285551 11.11055,4.301876 1.34267,0.01783 2.73254,-0.984864 7.17699,-5.177644 6.6811,-6.302787 17.22943,-14.039749 23.82714,-17.47667 3.47557,-1.810515 4.65616,-1.773915 7.10247,0.220191 0.59707,0.486699 1.15891,0.884907 1.24852,0.884907 0.0896,0 0.97033,-0.515488 1.95713,-1.145527 0.9868,-0.630039 2.92528,-1.631947 4.30773,-2.226466 4.42884,-1.904611 5.50974,-2.04765 6.40239,-0.847259 0.43558,0.585751 0.4655,0.83997 0.22512,1.912623 -0.39876,1.779338 -2.52642,6.512226 -3.85775,8.581402 l -1.14015,1.772045 0.83884,1.026821 c 1.4866,1.819746 1.60553,2.076037 1.61918,3.489208 0.0172,1.778707 -1.33277,4.511845 -4.89493,9.910421 -4.48602,6.798733 -9.0752,12.729217 -13.21847,17.081937 -4.36341,4.58399 -5.81798,6.52684 -5.81798,7.77099 0,1.38911 3.53444,9.97001 5.37608,13.05202 2.47717,4.14557 7.35704,9.8434 30.99785,36.1937 28.90783,32.22096 37.87755,42.63443 38.97071,45.24342 0.57879,1.38135 0.31939,4.28853 -0.5313,5.95445 -2.1532,4.21668 -6.82668,7.81439 -17.34241,13.35043 -3.05211,1.6068 -5.68107,2.92144 -5.84214,2.92144 -0.16106,0 -8.30132,-5.73655 -18.08947,-12.74789 -9.78813,-7.01133 -23.39255,-16.75331 -30.23203,-21.64882 -6.83948,-4.89552 -21.28341,-15.23473 -32.09763,-22.97603 -11.68901,-8.36751 -19.78947,-13.99945 -19.97604,-13.88856 -0.30154,0.17923 -14.04319,10.58035 -21.25291,16.08644 -1.91212,1.46029 -6.61509,5.03143 -10.451042,7.93587 -3.835951,2.90443 -8.539541,6.47631 -10.452425,7.9375 -2.543212,1.94268 -16.747463,12.69888 -17.508047,13.25801 -0.04617,0.0339 0.213246,0.64816 0.576471,1.36495 0.97286,1.91985 4.591179,6.52723 14.186159,18.06395 7.401398,8.89922 13.243284,16.53323 13.229033,17.28731 -0.04305,2.2781 -6.056738,8.31878 -11.768147,11.82098 -1.678128,1.02902 -4.188317,2.11254 -4.894093,2.11254 -0.152408,0 -0.78046,-0.45824 -1.395672,-1.01831 z" id="path8194" /></ns2:g></g>
</g>
  <g id="Trash Fence">
<line id="Trash Fence line_0" x1="-306.0189360860252" y1="647.0171704537015" x2="-1000.5001827844383" y2="-46.63990962114228" stroke="black" />
  <line id="Trash Fence line_1" x1="-1000.5001827844383" y1="-46.63990962114228" x2="-553.3589720223788" y2="-920.038715937734" stroke="black" />
  <line id="Trash Fence line_2" x1="-553.3589720223788" y1="-920.038715937734" x2="412.76438076644354" y2="-767.3580959851014" stroke="black" />
  <line id="Trash Fence line_3" x1="412.76438076644354" y1="-767.3580959851014" x2="565.8612890046995" y2="202.98759310412805" stroke="black" />
  <line id="Trash Fence line_4" x1="565.8612890046995" y1="202.98759310412805" x2="-306.0189360860252" y2="647.0171704537015" stroke="black" />
</g>
  <g id="hour_labels">

    <text x="590.9932794852956" y="158.96837296358586" transform="rotate(285.0, 590.9932794852956, 158.96837296358586)" text-anchor="middle" fill="black" font-size="24px" font-family="Reef">
        II
    </text>
    
  
    <text x="431.9139183300128" y="433.58317212798295" transform="rotate(315.0, 431.9139183300128, 433.58317212798295)" text-anchor="middle" fill="black" font-size="24px" font-family="Reef">
        III
    </text>
    
  
    <text x="157.82809819791703" y="591.2988173660485" transform="rotate(345.0, 157.82809819791703, 591.2988173660485)" text-anchor="middle" fill="black" font-size="24px" font-family="Reef">
        IV
    </text>
    
  
    <text x="-157.82809819791723" y="591.2988173660484" transform="rotate(375.0, -157.82809819791723, 591.2988173660484)" text-anchor="middle" fill="black" font-size="24px" font-family="Reef">
        V
    </text>
    
  
    <text x="-431.9139183300125" y="433.5831721279831" transform="rotate(405.0, -431.9139183300125, 433.5831721279831)" text-anchor="middle" fill="black" font-size="24px" font-family="Reef">
        VI
    </text>
    
  
    <text x="-590.9932794852956" y="158.96837296358586" transform="rotate(435.0, -590.9932794852956, 158.96837296358586)" text-anchor="middle" fill="black" font-size="24px" font-family="Reef">
        VII
    </text>
    
  
    <text x="-590.9934289250798" y="-158.96781739430142" transform="rotate(285.0, -590.9934289250798, -158.96781739430142)" text-anchor="middle" fill="black" font-size="24px" font-family="Reef">
        VIII
    </text>
    
  
    <text x="-431.9142162108944" y="-433.5828753945051" transform="rotate(315.0, -431.9142162108944, -433.5828753945051)" text-anchor="middle" fill="black" font-size="24px" font-family="Reef">
        IX
    </text>
    
  
    <text x="-157.8282466424929" y="-591.2987777441101" transform="rotate(345.0, -157.8282466424929, -591.2987777441101)" text-anchor="middle" fill="black" font-size="24px" font-family="Reef">
        X
    </text>
    
  
    <text x="431.9142162108945" y="-433.58287539450504" transform="rotate(45.0, 431.9142162108945, -433.58287539450504)" text-anchor="middle" fill="black" font-size="24px" font-family="Reef">
        XII
    </text>
    
</g>
</svg>
