
<svg xmlns="http://www.w3.org/2000/svg" viewBox="-832.5649122141847 -832.5649122141847 1665.1298244283694 1665.1298244283694" width="1665.1298244283694" height="1665.1298244283694">
  <g id="esplanade">
<path id="esplanade arch_0" d="M 241.4814565722671 64.70476127563019 A 250.0 250.0 0 0 1 -135.7755227132284 209.916667827854" fill="none" stroke="black" />
  <path id="esplanade arch_1" d="M -209.91666782785396 135.77552271322844 A 250.0 250.0 0 0 1 -64.70476127563015 -241.4814565722671" fill="none" stroke="black" />
</g>
  <g id="a">
<path id="a arch_0" d="M 283.9821929289861 76.0927992601411 A 294.0 294.0 0 0 1 -147.0323328250133 254.59279860992632" fill="none" stroke="black" />
  <path id="a arch_1" d="M -254.59279860992632 147.03233282501336 A 294.0 294.0 0 0 1 -76.09279926014106 -283.9821929289861" fill="none" stroke="black" />
</g>
  <g id="b">
<path id="b arch_0" d="M 311.9940418913691 83.5985515681142 A 323.0 323.0 0 0 1 233.98185686310194 222.66901593821913" fill="none" stroke="black" />
  <path id="b arch_1" d="M 222.66901593821913 233.98185686310194 A 323.0 323.0 0 0 1 7.999386532469328 322.9009287925697" fill="none" stroke="black" />
  <path id="b arch_2" d="M -7.999386532469359 322.9009287925697 A 323.0 323.0 0 0 1 -166.89682813129366 276.5401395091017" fill="none" stroke="black" />
  <path id="b arch_3" d="M -276.54013950910166 166.89682813129372 A 323.0 323.0 0 0 1 -322.9009287925697 7.999386532469418" fill="none" stroke="black" />
  <path id="b arch_4" d="M -322.9009287925697 -7.99938653246934 A 323.0 323.0 0 0 1 -233.98185686310202 -222.66901593821905" fill="none" stroke="black" />
  <path id="b arch_5" d="M -222.66901593821913 -233.98185686310194 A 323.0 323.0 0 0 1 -83.59855156811416 -311.9940418913691" fill="none" stroke="black" />
</g>
  <g id="c">
<path id="c arch_0" d="M 340.005890853752 91.1043038760873 A 352.0 352.0 0 0 1 -198.46029846908678 290.7189535127715" fill="none" stroke="black" />
  <path id="c arch_1" d="M -290.71895351277146 198.4602984690868 A 352.0 352.0 0 0 1 -91.10430387608726 -340.005890853752" fill="none" stroke="black" />
</g>
  <g id="d">
<path id="d arch_0" d="M 368.017739816135 98.6100561840604 A 381.0 381.0 0 1 1 -98.61005618406037 -368.017739816135" fill="none" stroke="black" />
</g>
  <g id="e">
<path id="e arch_0" d="M 396.029588778518 106.11580849203351 A 410.0 410.0 0 1 1 -106.11580849203347 -396.029588778518" fill="none" stroke="black" />
</g>
  <g id="f">
<path id="f arch_0" d="M 443.35995426668234 118.79794170205703 A 459.0 459.0 0 1 1 -118.79794170205696 -443.35995426668234" fill="none" stroke="black" />
</g>
  <g id="g">
<path id="g arch_0" d="M 471.37180322906534 126.30369401003013 A 488.0 488.0 0 0 1 350.6784057761678 339.3650773463373" fill="none" stroke="black" />
  <path id="g arch_1" d="M 339.3650773463373 350.67840577616766 A 488.0 488.0 0 0 1 7.99973125052369 487.93442622950823" fill="none" stroke="black" />
  <path id="g arch_2" d="M -7.999731250523631 487.93442622950823 A 488.0 488.0 0 0 1 -339.36507734633733 350.6784057761676" fill="none" stroke="black" />
  <path id="g arch_3" d="M -350.6784057761678 339.3650773463372 A 488.0 488.0 0 0 1 -487.93442622950823 7.99973125052383" fill="none" stroke="black" />
  <path id="g arch_4" d="M -487.93442622950823 -7.999731250523927 A 488.0 488.0 0 0 1 -350.67840577616784 -339.3650773463371" fill="none" stroke="black" />
  <path id="g arch_5" d="M -339.36507734633705 -350.6784057761679 A 488.0 488.0 0 0 1 -126.30369401003006 -471.37180322906534" fill="none" stroke="black" />
</g>
  <g id="h">
<path id="h arch_0" d="M 499.38365219144833 133.80944631800324 A 517.0 517.0 0 1 1 -133.80944631800315 -499.38365219144833" fill="none" stroke="black" />
</g>
  <g id="i">
<path id="i arch_0" d="M 527.3955011538312 141.3151986259763 A 546.0 546.0 0 1 1 -141.31519862597628 -527.3955011538312" fill="none" stroke="black" />
</g>
  <g id="j">
<path id="j arch_0" d="M 545.7480918533236 146.23276048292422 A 565.0 565.0 0 1 1 -146.23276048292416 -545.7480918533236" fill="none" stroke="black" />
</g>
  <g id="k">
<path id="k arch_0" d="M 564.5836454659604 151.27973186242338 A 584.5 584.5 0 1 1 -151.27973186242332 -564.5836454659604" fill="none" stroke="black" />
</g>
  <g id="02:00">
<line id="02:00 line_0" x1="241.41884948547312" y1="64.93796357387409" x2="564.4372310931833" y2="151.8251038392885" stroke="black" />
</g>
  <g id="02:15">
<line id="02:15 line_0" x1="423.82044885759797" y1="176.23060781222517" x2="539.7016184411574" y2="224.4157148065367" stroke="black" />
</g>
  <g id="02:30">
<line id="02:30 line_0" x1="216.29710591135603" y1="125.36172451847315" x2="505.7025661625968" y2="293.0958283161923" stroke="black" />
</g>
  <g id="02:45">
<line id="02:45 line_0" x1="363.62782357158335" y1="280.09963570976106" x2="463.05108917852493" y2="356.6846489699609" stroke="black" />
</g>
  <g id="03:00">
<line id="03:00 line_0" x1="176.43550424514257" y1="177.11722909355768" x2="222.308727207505" y2="223.1677167683822" stroke="black" />
  <line id="03:00 line_1" x1="233.60059695974232" y1="234.50322194027294" x2="338.75612425225916" y2="340.06512358956525" stroke="black" />
  <line id="03:00 line_2" x1="350.04799190524113" y1="351.40063085221647" x2="412.50613118320837" y2="414.1001590630499" stroke="black" />
</g>
  <g id="03:15">
<line id="03:15 line_0" x1="278.7430881361716" y1="364.66874121117974" x2="354.9571287519974" y2="464.3766647322397" stroke="black" />
</g>
  <g id="03:30">
<line id="03:30 line_0" x1="124.6386397173015" y1="216.7145807035693" x2="291.4050724645976" y2="506.67872832998444" stroke="black" />
</g>
  <g id="03:45">
<line id="03:45 line_0" x1="175.07411681713137" y1="424.29948576564374" x2="222.94294518352876" y2="540.311663017686" stroke="black" />
</g>
  <g id="04:00">
<line id="04:00 line_0" x1="64.47231024225681" y1="241.54362175816027" x2="150.73622260677618" y2="564.7289980112253" stroke="black" />
</g>
  <g id="04:15">
<line id="04:15 line_0" x1="59.68482390723172" y1="455.10297933009315" x2="76.0038695466059" y2="579.5374550571997" stroke="black" />
</g>
  <g id="04:30">
<line id="04:30 line_0" x1="1.530808498933608e-14" y1="249.99999999990467" x2="1.928818708657885e-14" y2="315.0000000001313" stroke="black" />
  <line id="04:30 line_1" x1="2.0267904525890838e-14" y1="331.00000000003496" x2="2.9391523179545334e-14" y2="480.0000000001446" stroke="black" />
  <line id="04:30 line_2" x1="3.037124061886813e-14" y1="496.00000000022493" x2="3.579030270507017e-14" y2="584.4999999998166" stroke="black" />
</g>
  <g id="04:45">
<line id="04:45 line_0" x1="-59.68482390723218" y1="455.10297933009304" x2="-76.00386954660621" y2="579.5374550571996" stroke="black" />
</g>
  <g id="05:00">
<line id="05:00 line_0" x1="-64.47231024225707" y1="241.5436217581602" x2="-150.7362226067756" y2="564.7289980112254" stroke="black" />
</g>
  <g id="05:15">
<line id="05:15 line_0" x1="-175.07411681713114" y1="424.29948576564385" x2="-222.9429451835293" y2="540.3116630176858" stroke="black" />
</g>
  <g id="05:30">
<line id="05:30 line_0" x1="-189.899414337221" y1="330.1863450153667" x2="-291.40507246459754" y2="506.67872832998444" stroke="black" />
</g>
  <g id="05:45">
<line id="05:45 line_0" x1="-278.74308813617176" y1="364.66874121117957" x2="-354.95712875199723" y2="464.37666473224" stroke="black" />
</g>
  <g id="06:00">
<line id="06:00 line_0" x1="-268.81711444170304" y1="269.8558299966688" x2="-338.756124252259" y2="340.06512358956536" stroke="black" />
  <line id="06:00 line_1" x1="-350.04799190524136" y1="351.4006308522162" x2="-412.50613118320854" y2="414.1001590630498" stroke="black" />
</g>
  <g id="06:15">
<line id="06:15 line_0" x1="-363.6278235715833" y1="280.0996357097612" x2="-463.05108917852476" y2="356.68464896996113" stroke="black" />
</g>
  <g id="06:30">
<line id="06:30 line_0" x1="-329.55025336346336" y1="191.0011531594792" x2="-505.70256616259655" y2="293.0958283161926" stroke="black" />
</g>
  <g id="06:45">
<line id="06:45 line_0" x1="-423.82044885759797" y1="176.23060781222517" x2="-539.7016184411573" y2="224.41571480653707" stroke="black" />
</g>
  <g id="07:00">
<line id="07:00 line_0" x1="-241.41884948547312" y1="64.93796357387407" x2="-564.4372310931833" y2="151.8251038392883" stroke="black" />
</g>
  <g id="07:15">
<line id="07:15 line_0" x1="-455.04315979445073" y1="60.139194575481625" x2="-579.4612710710445" y2="76.58253931987682" stroke="black" />
</g>
  <g id="07:30">
<line id="07:30 line_0" x1="-249.99999999987435" y1="4.970871317628264e-05" x2="-314.999999999846" y2="7.891782723169844e-05" stroke="black" />
  <line id="07:30 line_1" x1="-331.0000000000261" y1="8.713807078133341e-05" x2="-479.99999999990314" y2="0.00018324611295575028" stroke="black" />
  <line id="07:30 line_2" x1="-495.9999999997684" y1="0.000195666108215685" x2="-584.4999999998478" y2="0.000271720548950447" stroke="black" />
</g>
  <g id="07:45">
<line id="07:45 line_0" x1="-455.04320332491716" y1="-60.13886520272639" x2="-579.461341659933" y2="-76.58200520951291" stroke="black" />
</g>
  <g id="08:00">
<line id="08:00 line_0" x1="-241.41887442267722" y1="-64.93787086418911" x2="-564.4373674072551" y2="-151.82459706565592" stroke="black" />
</g>
  <g id="08:15">
<line id="08:15 line_0" x1="-423.8205676656006" y1="-176.23032208932077" x2="-539.7018110998639" y2="-224.4152514770848" stroke="black" />
</g>
  <g id="08:30">
<line id="08:30 line_0" x1="-216.29714904317728" y1="-125.36165009990627" x2="-505.7028019317571" y2="-293.09542152396585" stroke="black" />
</g>
  <g id="08:45">
<line id="08:45 line_0" x1="-363.6279855847262" y1="-280.0994253820012" x2="-463.05135189977864" y2="-356.68430790252523" stroke="black" />
</g>
  <g id="09:00">
<line id="09:00 line_0" x1="-176.4355539529579" y1="-177.11717957667247" x2="-222.3088061236691" y2="-223.16763815530226" stroke="black" />
  <line id="09:00 line_1" x1="-233.60068409677137" y1="-234.50313513786077" x2="-338.75630749658023" y2="-340.06494104986206" stroke="black" />
  <line id="09:00 line_2" x1="-350.0481875694675" y1="-351.40043594025974" x2="-412.5064029009685" y2="-414.09988839120797" stroke="black" />
</g>
  <g id="09:15">
<line id="09:15 line_0" x1="-278.743249825963" y1="-364.668617619083" x2="-354.95739094947766" y2="-464.3764643156833" stroke="black" />
</g>
  <g id="09:30">
<line id="09:30 line_0" x1="-124.63868268322292" y1="-216.71455599259488" x2="-291.40530732608187" y2="-506.6785932544688" stroke="black" />
</g>
  <g id="09:45">
<line id="09:45 line_0" x1="-175.0742349788349" y1="-424.29943700958995" x2="-222.94313679449004" y2="-540.311583954891" stroke="black" />
</g>
  <g id="10:00">
<line id="10:00 line_0" x1="-64.47233501348157" y1="-241.543615145738" x2="-150.7363580134177" y2="-564.7289618681268" stroke="black" />
</g>
  <g id="3:00 &amp; B Plaza">
<circle id="3:00 &amp; B Plaza circle_0" cx="227.95466210862637" cy="228.83546932909968" r="8.0" fill="none" stroke="black" />
</g>
  <g id="4:30 &amp; B Plaza">
<circle id="4:30 &amp; B Plaza circle_0" cx="1.9778045806228373e-14" cy="322.99999999997743" r="8.0" fill="none" stroke="black" />
</g>
  <g id="7:30 &amp; B Plaza">
<circle id="7:30 &amp; B Plaza circle_0" cx="-322.99999999997397" cy="8.297705590146152e-05" r="8.0" fill="none" stroke="black" />
</g>
  <g id="9:00 &amp; B Plaza">
<circle id="9:00 &amp; B Plaza circle_0" cx="-227.95474508482909" cy="-228.83538667214148" r="8.0" fill="none" stroke="black" />
</g>
  <g id="3:00 &amp; G Plaza">
<circle id="3:00 &amp; G Plaza circle_0" cx="344.40205810412084" cy="345.7328771954709" r="8.0" fill="none" stroke="black" />
</g>
  <g id="4:30 &amp; G Plaza">
<circle id="4:30 &amp; G Plaza circle_0" cx="2.9881381899189955e-14" cy="487.99999999991076" r="8.0" fill="none" stroke="black" />
</g>
  <g id="6:00 &amp; G Plaza">
<circle id="6:00 &amp; G Plaza circle_0" cx="-344.40205810412056" cy="345.73287719547113" r="8.0" fill="none" stroke="black" />
</g>
  <g id="7:30 &amp; G Plaza">
<circle id="7:30 &amp; G Plaza circle_0" cx="-487.99999999985477" cy="0.0001894055085422811" r="8.0" fill="none" stroke="black" />
</g>
  <g id="9:00 &amp; G Plaza">
<circle id="9:00 &amp; G Plaza circle_0" cx="-344.4022475073769" cy="-345.73268851998716" r="8.0" fill="none" stroke="black" />
</g>
  <g id="Rod’s Ring Road">
<circle id="Rod’s Ring Road circle_0" cx="-213.55752800918032" cy="214.38270039967634" r="78.3" fill="none" stroke="black" />
</g>
  <g id="Center Camp">
<circle id="Center Camp circle_0" cx="-213.55752800918032" cy="214.38270039967634" r="32.0" fill="none" stroke="black" />
  <line id="Center Camp line_0" x1="-236.14126762594788" y1="237.05371063188892" x2="-268.81711444170304" y2="269.8558299966688" stroke="black" />
  <line id="Center Camp line_1" x1="-254.36539208855373" y1="147.4253957349878" x2="-229.61620692704383" y2="186.68989445203857" stroke="black" />
  <line id="Center Camp line_2" x1="-146.57503586170645" y1="254.85634946433532" x2="-185.82518789796126" y2="230.32371585262248" stroke="black" />
</g>
  <g id="6:00 Promenade">
<line id="6:00 Promenade line_0" x1="-158.29793670096416" y1="158.90957565915505" x2="-28.229684019834743" y2="28.338753327624325" stroke="black" />
</g>
  <g id="3:00 Promenade">
<line id="3:00 Promenade line_0" x1="176.43550424514257" y1="177.11722909355768" x2="28.229684019834746" y2="28.338753327624318" stroke="black" />
</g>
  <g id="9:00 Promenade">
<line id="9:00 Promenade line_0" x1="-176.4355539529579" y1="-177.11717957667247" x2="-28.22968529201966" y2="-28.338752059951684" stroke="black" />
</g>
  <g id="12:00 Promenade">
<line id="12:00 Promenade line_0" x1="162.32070780767546" y1="-162.9478070330212" x2="28.229685292019656" y2="-28.33875205995169" stroke="black" />
</g>
  <g id="Man">
<circle id="Man circle_0" cx="0.0" cy="-0.0" r="40.0" fill="none" stroke="black" />
</g>
  <g id="Temple">
<g xmlns:ns0="http://www.w3.org/2000/svg" xmlns:ns1="http://sodipodi.sourceforge.net/DTD/sodipodi-0.dtd" xmlns:ns2="http://www.inkscape.org/namespaces/inkscape" id="Temple_icon_0" transform="translate(176.43555395295786, -177.11717957667253) scale(1.25) rotate(0) translate(-16.0, -14.8)"><ns0:defs id="defs3957" />
  <ns1:namedview id="namedview3955" pagecolor="#ffffff" bordercolor="#000000" borderopacity="0.25" ns2:showpageshadow="2" ns2:pageopacity="0.0" ns2:pagecheckerboard="0" ns2:deskcolor="#d1d1d1" showgrid="false" showguides="false" ns2:zoom="5.9272367" ns2:cx="9.9540482" ns2:cy="52.132218" ns2:window-width="1920" ns2:window-height="1080" ns2:window-x="0" ns2:window-y="0" ns2:window-maximized="0" ns2:current-layer="svg3953" />
  <ns0:path d="M 24.487843,-1.1330419 C 21.617318,-1.392055 18.854102,0.53220248 17.15088,3.1688395 15.447656,0.53220248 12.696294,-1.1330419 9.8139164,-1.1330419 c -5.3717049,0 -9.69527233,4.7181924 -9.69527233,10.6853184 0,8.7425325 15.84466593,21.1752905 15.84466593,21.1752905 0,0 15.977471,-12.094707 16.003308,-20.8384266 0.01329,-4.4980728 -1.266145,-10.46160451 -7.478775,-11.0221823 z" id="path3951" style="stroke-width:1.34839;fill:#ff0000;fill-opacity:1;stroke:#000000;stroke-opacity:1" ns1:nodetypes="scsscss" />
</g>
</g>
  <g id="Trash Fence">
<line id="Trash Fence line_0" x1="-132.49712993773085" y1="832.2918996463941" x2="-832.5649122141847" y2="131.00096400222498" stroke="black" />
  <line id="Trash Fence line_1" x1="-832.5649122141847" y1="131.00096400222498" x2="-380.1477679163002" y2="-752.1763321896395" stroke="black" />
  <line id="Trash Fence line_2" x1="-380.1477679163002" y1="-752.1763321896395" x2="596.0020092447924" y2="-595.8943543610251" stroke="black" />
  <line id="Trash Fence line_3" x1="596.0020092447924" y1="-595.8943543610251" x2="749.7845117474778" y2="385.1785573983302" stroke="black" />
  <line id="Trash Fence line_4" x1="749.7845117474778" y1="385.1785573983302" x2="-132.49712993773085" y2="832.2918996463941" stroke="black" />
</g>
</svg>
