<?xml version="1.0" encoding="UTF-8" standalone="no"?>
<!-- Created with Inkscape (http://www.inkscape.org/) -->

<svg
   width="200"
   height="200"
   viewBox="-100 -100 200 200"
   version="1.1"
   id="svg8061"
   xml:space="preserve"
   sodipodi:docname="airport.svg"
   inkscape:version="1.2.2 (b0a84865, 2022-12-01)"
   xmlns:inkscape="http://www.inkscape.org/namespaces/inkscape"
   xmlns:sodipodi="http://sodipodi.sourceforge.net/DTD/sodipodi-0.dtd"
   xmlns="http://www.w3.org/2000/svg"
   xmlns:svg="http://www.w3.org/2000/svg"><sodipodi:namedview
     id="namedview687"
     pagecolor="#ffffff"
     bordercolor="#000000"
     borderopacity="0.25"
     inkscape:showpageshadow="2"
     inkscape:pageopacity="0.0"
     inkscape:pagecheckerboard="0"
     inkscape:deskcolor="#d1d1d1"
     inkscape:document-units="px"
     showgrid="false"
     inkscape:zoom="0.79293125"
     inkscape:cx="-102.15261"
     inkscape:cy="372.0373"
     inkscape:window-width="1920"
     inkscape:window-height="1080"
     inkscape:window-x="0"
     inkscape:window-y="0"
     inkscape:window-maximized="0"
     inkscape:current-layer="svg8061" /><defs
     id="defs8058" /><g
     id="layer1"
     transform="matrix(0.82437684,0,0,0.82437684,-109.90819,-112.90717)"><path
       style="fill:#000000;stroke-width:0.264583"
       d="m 80.474027,257.39902 c -4.295899,-3.91086 -18.327369,-14.5921 -19.168995,-14.5921 -0.415457,0 -4.692586,-3.04362 -8.937072,-6.35964 -5.542301,-4.32996 -9.554119,-7.83222 -11.566008,-10.09698 -4.575966,-5.15111 -11.879757,-14.60548 -13.041005,-16.88088 -1.36901,-2.68251 -8.414418,-12.12772 -13.162256,-17.64559 -1.418828,-1.64894 -2.579687,-3.21984 -2.579687,-3.49089 0,-3.91627 10.434804,-16.43435 13.69932,-16.43435 1.028332,0 7.108721,4.58357 17.256928,13.00879 13.19594,10.95549 19.082996,15.41246 19.599256,14.8382 0.09792,-0.10892 9.438332,-12.40194 20.756482,-27.31783 11.318147,-14.91588 21.50936,-28.33098 22.64714,-29.81133 l 2.0687,-2.69154 L 72.203809,89.858916 36.360791,39.79296 38.786414,35.135881 c 5.99595,-11.51192 9.876319,-16.605031 14.188593,-18.622987 2.345587,-1.097632 4.709617,-1.141739 6.452425,-0.120386 3.557016,2.084551 13.061648,10.32664 46.121778,39.995221 26.82359,24.071839 31.68841,28.150234 36.53509,30.629036 3.70034,1.892514 9.88088,4.285551 11.11055,4.301876 1.34267,0.01783 2.73254,-0.984864 7.17699,-5.177644 6.6811,-6.302787 17.22943,-14.039749 23.82714,-17.47667 3.47557,-1.810515 4.65616,-1.773915 7.10247,0.220191 0.59707,0.486699 1.15891,0.884907 1.24852,0.884907 0.0896,0 0.97033,-0.515488 1.95713,-1.145527 0.9868,-0.630039 2.92528,-1.631947 4.30773,-2.226466 4.42884,-1.904611 5.50974,-2.04765 6.40239,-0.847259 0.43558,0.585751 0.4655,0.83997 0.22512,1.912623 -0.39876,1.779338 -2.52642,6.512226 -3.85775,8.581402 l -1.14015,1.772045 0.83884,1.026821 c 1.4866,1.819746 1.60553,2.076037 1.61918,3.489208 0.0172,1.778707 -1.33277,4.511845 -4.89493,9.910421 -4.48602,6.798733 -9.0752,12.729217 -13.21847,17.081937 -4.36341,4.58399 -5.81798,6.52684 -5.81798,7.77099 0,1.38911 3.53444,9.97001 5.37608,13.05202 2.47717,4.14557 7.35704,9.8434 30.99785,36.1937 28.90783,32.22096 37.87755,42.63443 38.97071,45.24342 0.57879,1.38135 0.31939,4.28853 -0.5313,5.95445 -2.1532,4.21668 -6.82668,7.81439 -17.34241,13.35043 -3.05211,1.6068 -5.68107,2.92144 -5.84214,2.92144 -0.16106,0 -8.30132,-5.73655 -18.08947,-12.74789 -9.78813,-7.01133 -23.39255,-16.75331 -30.23203,-21.64882 -6.83948,-4.89552 -21.28341,-15.23473 -32.09763,-22.97603 -11.68901,-8.36751 -19.78947,-13.99945 -19.97604,-13.88856 -0.30154,0.17923 -14.04319,10.58035 -21.25291,16.08644 -1.91212,1.46029 -6.61509,5.03143 -10.451042,7.93587 -3.835951,2.90443 -8.539541,6.47631 -10.452425,7.9375 -2.543212,1.94268 -16.747463,12.69888 -17.508047,13.25801 -0.04617,0.0339 0.213246,0.64816 0.576471,1.36495 0.97286,1.91985 4.591179,6.52723 14.186159,18.06395 7.401398,8.89922 13.243284,16.53323 13.229033,17.28731 -0.04305,2.2781 -6.056738,8.31878 -11.768147,11.82098 -1.678128,1.02902 -4.188317,2.11254 -4.894093,2.11254 -0.152408,0 -0.78046,-0.45824 -1.395672,-1.01831 z"
       id="path8194" /></g></svg>
